<svg width="48" height="48" viewBox="0 0 48 48" fill="none" xmlns="http://www.w3.org/2000/svg">
<rect width="48" height="48" fill="white" fill-opacity="0.1"/>
<rect x="0.5" y="0.5" width="47" height="47" stroke="black" stroke-opacity="0.16"/>
<g clip-path="url(#clip0_1_266)">
<path fill-rule="evenodd" clip-rule="evenodd" d="M27.5 17H20.5C18.5752 17 17 18.5745 17 20.5V27.5C17 29.4248 18.5752 31 20.5 31H27.5C29.4248 31 31 29.4248 31 27.5V20.5C31 18.5745 29.4248 17 27.5 17ZM23.9997 26.9168C22.3887 26.9168 21.083 25.6106 21.083 24.0002C21.083 22.3892 22.3887 21.0835 23.9997 21.0835C25.6101 21.0835 26.9165 22.3892 26.9165 24.0002C26.9165 25.6106 25.6101 26.9168 23.9997 26.9168ZM26.917 20.2085C26.917 20.6917 27.3083 21.0835 27.792 21.0835C28.2757 21.0835 28.667 20.6917 28.667 20.2085C28.667 19.7253 28.2757 19.3335 27.792 19.3335C27.3083 19.3335 26.917 19.7253 26.917 20.2085Z" fill="white"/>
</g>
<defs>
<clipPath id="clip0_1_266">
<rect width="14" height="14" fill="white" transform="translate(17 17)"/>
</clipPath>
</defs>
</svg>
