<svg width="48" height="48" viewBox="0 0 48 48" fill="none" xmlns="http://www.w3.org/2000/svg">
<rect width="48" height="48" fill="white" fill-opacity="0.1"/>
<rect x="0.5" y="0.5" width="47" height="47" stroke="black" stroke-opacity="0.16"/>
<g clip-path="url(#clip0_1_270)">
<path d="M31.2777 19.5552C31.1789 19.4495 31.0214 19.4233 30.8937 19.4912C30.7388 19.5621 30.5782 19.6199 30.4137 19.664C30.6577 19.3599 30.8423 19.0125 30.9577 18.64C30.9892 18.5109 30.9377 18.3758 30.8283 18.3005C30.7188 18.2251 30.5742 18.2253 30.4649 18.3008C29.9549 18.5829 29.4107 18.798 28.8457 18.9408C28.2388 18.337 27.417 17.9986 26.5609 18C25.8778 18.015 25.2127 18.2212 24.6409 18.5952C23.4249 19.28 23.2137 20.8608 23.3033 21.84C21.049 21.6499 18.9692 20.55 17.5433 18.7936C17.485 18.7039 17.3877 18.6469 17.2809 18.64C17.1742 18.6472 17.0781 18.7072 17.0249 18.8C16.3656 19.9417 16.4203 21.3605 17.1657 22.448C17.0697 22.384 16.9673 22.3072 16.8649 22.224C16.7694 22.1294 16.625 22.1045 16.5033 22.1617C16.3817 22.2189 16.3088 22.3461 16.3209 22.48C16.3403 23.671 16.9369 24.7783 17.9209 25.4496L17.6713 25.3792C17.5526 25.3423 17.4233 25.3774 17.3396 25.4693C17.2559 25.5612 17.233 25.6933 17.2809 25.808C17.7832 26.9425 18.7671 27.7926 19.9625 28.1248C18.8727 28.7544 17.6102 29.019 16.3593 28.88C16.2081 28.8613 16.0646 28.9518 16.0165 29.0964C15.9683 29.2409 16.0287 29.3994 16.1609 29.4752C17.6658 30.353 19.3788 30.8105 21.1209 30.8C23.5814 30.7799 25.9138 29.7 27.5209 27.8368C29.1219 26.1209 29.9639 23.8323 29.8569 21.488C30.4272 21.0522 30.9186 20.5219 31.3097 19.92C31.3765 19.8037 31.3638 19.6581 31.2777 19.5552Z" fill="white"/>
</g>
<defs>
<clipPath id="clip0_1_270">
<rect width="16" height="13" fill="white" transform="translate(16 18)"/>
</clipPath>
</defs>
</svg>
