<svg width="112" height="36" viewBox="0 0 112 36" fill="none" xmlns="http://www.w3.org/2000/svg">
<path d="M48.065 20.791C48.065 16.525 45.554 13.312 41.666 13.312C39.938 13.312 38.48 14.041 37.427 15.445V8.614H33.674V28H37.13V25.921C38.237 27.433 39.803 28.27 41.666 28.27C45.554 28.27 48.065 25.003 48.065 20.791ZM44.204 20.791C44.204 23.491 42.665 24.922 40.829 24.922C38.966 24.922 37.454 23.464 37.454 20.737C37.454 18.01 39.02 16.633 40.829 16.633C42.665 16.633 44.204 18.037 44.204 20.791ZM52.8999 28V8.614H49.1199V28H52.8999ZM63.5014 28H66.5524V18.928C66.5524 15.391 64.3384 13.312 60.5584 13.312C57.0754 13.312 54.6724 15.472 54.4564 18.793H57.8314C57.9664 17.173 58.9384 16.228 60.5584 16.228C62.1244 16.228 63.0424 17.173 63.0424 18.793V19.657C62.1514 19.549 61.4494 19.495 60.6394 19.495C56.4274 19.495 54.1594 21.007 54.1594 23.815C54.1594 26.515 56.1574 28.27 59.1544 28.27C61.1254 28.27 62.5564 27.568 63.5014 26.218V28ZM57.6964 23.707C57.6964 22.411 58.7494 21.736 60.8824 21.736C61.5304 21.736 62.1514 21.79 63.0424 21.925V22.951C63.0424 24.625 61.8814 25.678 59.9644 25.678C58.5604 25.678 57.6964 24.922 57.6964 23.707ZM72.1895 20.143C72.1895 17.821 73.4585 16.633 74.9435 16.633C76.6445 16.633 77.4815 17.821 77.4815 19.954V28H81.2075V18.685C81.2075 15.202 79.2095 13.312 76.3205 13.312C74.4305 13.312 72.9455 14.203 71.8925 15.634V13.582H68.4365V28H72.1895V20.143ZM86.8444 28V21.304L92.3524 28H97.1314L90.4624 20.494L96.4294 13.582H92.1094L86.8444 19.684V8.614H83.0914V28H86.8444ZM102.984 28.27C107.169 28.27 110.301 24.976 110.301 20.791C110.301 16.579 107.169 13.312 102.984 13.312C98.7995 13.312 95.6675 16.579 95.6675 20.791C95.6675 24.976 98.7995 28.27 102.984 28.27ZM102.984 24.949C101.121 24.949 99.5285 23.464 99.5285 20.791C99.5285 18.118 101.121 16.66 102.984 16.66C104.847 16.66 106.44 18.118 106.44 20.791C106.44 23.464 104.847 24.949 102.984 24.949Z" fill="white"/>
<path d="M22 6H17V23H22V6Z" fill="#FF7043"/>
<path d="M17 28V23H0V28H17Z" fill="#FF7043"/>
<path d="M22 11V6L5 6V11H22Z" fill="#FF7043"/>
<path d="M0 28H5L5 11H0L0 28Z" fill="#FF7043"/>
</svg>
